<svg width="326" height="132" viewBox="0 0 326 132" fill="none" xmlns="http://www.w3.org/2000/svg">
<path fill-rule="evenodd" clip-rule="evenodd" d="M325.916 47.8877V48.504C325.827 50.7153 325.098 52.6548 321.929 52.6548H308.348V85.3178C308.348 88.9249 306.088 89.4868 303.649 89.4868H303.471C301.033 89.4868 298.754 88.9974 298.754 85.3178V52.6548H285.191C282.023 52.6548 281.293 50.7153 281.204 48.504V47.8877C281.293 45.6764 282.023 43.7188 285.191 43.7188H322.018C325.098 43.7188 325.827 45.6764 325.916 47.8877ZM238.557 59.7783V85.3178C238.557 88.9249 236.278 89.4868 233.84 89.4868H233.68C231.188 89.4868 228.963 88.9974 228.963 85.3178V47.8877C228.963 44.2807 231.188 43.7188 233.68 43.7188H233.84C235.815 43.7188 237.346 45.5857 237.346 45.5857L263.351 73.3728V47.8877C263.351 44.2807 265.612 43.7188 268.05 43.7188H268.228C270.667 43.7188 272.945 44.19 272.945 47.8877V85.3178C272.945 88.9249 270.667 89.4868 268.228 89.4868H268.05C266.092 89.4868 264.544 87.6198 264.544 87.6198L238.557 59.7783ZM189.911 80.5325H213.37C216.539 80.5325 217.268 82.4901 217.357 84.7015V85.3178C217.268 87.5292 216.539 89.4868 213.37 89.4868H185.033C182.595 89.4868 180.317 88.9974 180.317 85.3178V47.8877C180.317 44.2807 182.595 43.7188 185.033 43.7188H213.37C216.539 43.7188 217.268 45.6764 217.357 47.8877V48.504C217.268 50.7153 216.539 52.6548 213.37 52.6548H189.911V61.7359H207.852C211.021 61.7359 211.751 63.6573 211.84 65.8686V66.5212C211.751 68.7326 211.021 70.6358 207.852 70.6358H189.911V80.5325ZM166.024 85.3178C166.024 88.9249 163.745 89.4868 161.307 89.4868H161.129C158.69 89.4868 156.43 88.9974 156.43 85.3178V47.8877C156.43 44.2807 158.69 43.7188 161.129 43.7188H161.307C163.745 43.7188 166.024 44.19 166.024 47.8877V85.3178ZM122.557 43.7188H109.581C107.143 43.7188 104.9 44.19 104.9 47.8877V85.3178C104.9 88.9249 107.143 89.4868 109.581 89.4868H122.557C135.141 89.4868 144.896 78.9737 144.896 66.5937C144.896 54.1774 135.141 43.7188 122.557 43.7188ZM122.166 80.6775H114.423V52.5279H122.166C129.873 52.5279 135.48 59.2708 135.48 66.5937C135.48 73.8441 129.873 80.6775 122.166 80.6775ZM85.2495 43.7188H84.0569C81.7786 43.8456 80.2478 44.2806 77.0795 47.2352L41.9611 82.8345C40.1634 84.7015 40.2524 85.9703 40.5906 86.9672C40.6796 87.1847 41.3203 89.1786 44.6667 89.4868C46.5 89.5774 48.1198 89.088 50.0955 87.0941L55.8803 81.1851H80.2478V85.4084C80.2478 88.9974 82.5084 89.5774 84.9469 89.5774H85.1605C87.6168 89.5774 89.8418 89.088 89.8418 85.4084V47.9783C90.0554 44.2807 87.688 43.7188 85.2495 43.7188ZM63.7655 73.2821L80.4614 56.3888V73.2821H63.7655Z" fill="#312783"/>
<path fill-rule="evenodd" clip-rule="evenodd" d="M7.53717 130.596C5.27664 132.862 3.47889 132.028 1.84134 130.596L1.37855 130.107C-0.0276067 128.457 -0.846383 126.627 1.37855 124.306L31.5487 93.6193C33.827 91.3173 35.6248 92.1511 37.2445 93.6193L37.6717 94.0543C39.1313 95.7219 39.9501 97.5526 37.6717 99.8546L7.53717 130.596ZM98.0654 38.4076C95.8049 40.7096 94.0071 39.8758 92.3696 38.4076L91.9068 37.9182C90.4472 36.2688 89.6462 34.4381 91.9068 32.1179L122.041 1.43071C124.302 -0.871285 126.1 -0.0374918 127.773 1.43071L128.2 1.9201C129.66 3.56956 130.478 5.40028 128.2 7.7204L98.0654 38.4076Z" fill="#312783"/>
</svg>
