<svg width="466" height="92" viewBox="0 0 466 92" fill="none" xmlns="http://www.w3.org/2000/svg">
<path d="M29.8436 0.597656H38.3115L68.0669 51.6898H60.4223L54.1889 40.8013H13.9662L7.73281 51.5701H0.0881348L29.8436 0.597656ZM34.0775 6.22138L17.2593 35.1776H50.8958L34.0775 6.22138Z" fill="#312783"/>
<path d="M75.3584 0.597656H115.464C129.93 0.597656 132.282 5.50346 132.282 15.0758V19.2636C132.282 26.4429 128.283 28.477 123.108 28.9556V29.0752C130.047 30.3914 131.694 33.981 131.694 38.6475V51.5701H125.343V40.3227C125.343 32.3059 121.579 31.3487 115.346 31.3487H82.1798V51.5701H75.3584V0.597656ZM114.64 25.8446C122.167 25.8446 125.343 23.8105 125.343 18.4261V13.7596C125.343 8.01618 122.873 6.22138 112.994 6.22138H82.1798V25.8446H114.64Z" fill="#312783"/>
<path d="M144.161 0.597656H193.322V6.22138H150.865V22.4943H191.676V28.118H150.865V45.9464H193.675V51.5701H144.161V0.597656Z" fill="#312783"/>
<path d="M203.554 0.597656H213.669L259.655 45.4678V0.597656H266.358V51.5701H256.244L210.376 6.81965V51.5701H203.554V0.597656Z" fill="#312783"/>
<path d="M278.002 35.5371H284.353V39.1268C284.353 44.1522 286.94 46.5453 295.408 46.5453H316.46C326.339 46.5453 329.162 44.3915 329.162 37.0926C329.162 30.6313 326.692 29.0758 318.224 29.0758H305.287C284.588 29.0758 277.766 27.7597 277.766 14.2388C277.766 2.63238 284.588 0 298.583 0H313.167C329.985 0 334.219 4.30753 334.219 13.5209V15.3157H327.868C327.751 7.17922 326.928 5.74338 309.051 5.74338H301.876C288.822 5.74338 284.117 6.4613 284.117 14.8371C284.117 20.9394 285.999 22.9735 296.584 22.9735H316.695C329.985 22.9735 335.513 26.8024 335.513 35.5371V38.8874C335.513 51.4511 325.399 52.4083 315.402 52.4083H296.584C286.705 52.4083 278.002 50.6135 278.002 39.4857V35.5371Z" fill="#312783"/>
<path d="M0.793701 76.6979C0.793701 70.2366 4.32201 68.8008 10.2025 68.8008H20.7875C26.668 68.8008 30.3139 70.3563 30.3139 76.6979V83.2789C30.3139 89.6205 26.7856 91.176 20.7875 91.176H10.2025C4.32201 91.176 0.793701 89.6205 0.793701 83.2789V76.6979ZM7.49749 81.1251C7.49749 84.3558 8.20316 85.5523 11.261 85.5523H19.729C22.9045 85.5523 23.4925 84.3558 23.4925 81.1251V78.732C23.4925 75.98 22.7868 74.3048 19.3761 74.3048H11.6139C8.20316 74.3048 7.49749 75.98 7.49749 78.732V81.1251Z" fill="#312783"/>
<path d="M35.3711 69.041H41.0164V78.374C41.3692 75.9809 43.839 75.263 46.0736 75.263H47.7202C54.8944 75.263 55.8353 77.8954 55.8353 81.844V84.596C55.8353 88.5446 54.8944 91.1769 47.7202 91.1769H46.0736C42.6629 91.1769 41.2516 89.9804 40.546 88.066H40.4283V90.9376H35.3711V69.041ZM40.6636 83.9977C40.6636 86.2711 41.8397 86.8694 44.0743 86.8694H47.485C50.19 86.8694 50.5428 85.9122 50.5428 84.237V82.4422C50.5428 80.7671 50.3076 79.8098 47.485 79.8098H44.0743C41.8397 79.8098 40.6636 80.2885 40.6636 82.6815V83.9977Z" fill="#312783"/>
<path d="M60.1872 82.3213C60.1872 76.4582 63.0098 75.2617 67.2438 75.2617H71.2426C77.3583 75.2617 79.8281 76.5779 79.8281 81.9623V84.5947H65.8325V85.5519C65.8325 87.2271 67.0086 87.586 69.3608 87.586H71.125C74.1828 87.586 74.3004 86.7485 74.3004 85.7912H79.5929V86.5092C79.5929 90.3381 76.1822 91.1757 72.0658 91.1757H67.8319C64.0683 91.1757 60.0696 90.4577 60.0696 83.8768V82.3213H60.1872ZM74.1828 81.0051C74.1828 79.2103 73.3596 78.8513 70.0665 78.8513C66.4205 78.8513 65.9501 79.2103 65.9501 81.0051H74.1828Z" fill="#312783"/>
<path d="M84.2966 75.501H89.5891V78.4924H89.7067C90.4124 76.0993 92.647 75.2617 95.2344 75.2617C99.3508 75.2617 100.997 77.0565 100.997 81.3641C100.997 81.723 100.997 82.2016 100.88 82.6802H95.9401C95.9401 80.7658 95.4696 79.8086 93.235 79.8086C91.2356 79.8086 89.9419 80.5265 89.9419 82.4409V90.9363H84.2966V75.501Z" fill="#312783"/>
<path d="M106.643 79.45H104.055V75.5014H106.643V74.3048C106.643 70.117 108.76 68.8008 113.582 68.8008C115.111 68.8008 116.287 68.9204 117.463 68.9204V72.869C116.64 72.869 115.816 72.7494 115.111 72.7494C112.876 72.7494 112.288 73.1083 112.288 74.7835V75.5014H117.698V79.45H112.288V90.8171H106.643V79.45ZM120.05 69.0401H125.696V90.9367H120.05V69.0401Z" fill="#312783"/>
<path d="M130.047 85.431C130.047 81.2431 132.87 81.0038 138.398 81.0038C141.573 81.0038 143.22 81.1235 144.278 82.2004V80.8842C144.278 79.3287 143.808 78.8501 141.573 78.8501H138.162C136.516 78.8501 136.045 78.9697 135.928 80.0466H130.635C130.635 75.8587 132.635 75.1408 137.457 75.1408H144.043C147.924 75.1408 150.041 77.0553 150.041 80.6449V90.8154H144.631V89.0206C143.102 90.6958 142.514 91.0547 139.574 91.0547H135.693C132.164 91.0547 130.047 90.3368 130.047 86.6275V85.431ZM133.576 69.6367H139.221V74.1836H133.576V69.6367ZM140.279 87.4651C144.161 87.4651 144.513 86.8668 144.513 85.79C144.513 84.5934 144.161 84.2345 140.985 84.2345H138.515C136.163 84.2345 135.575 84.8327 135.575 86.0293C135.575 86.9865 136.398 87.4651 138.515 87.4651H140.279ZM141.573 69.6367H147.218V74.1836H141.573V69.6367Z" fill="#312783"/>
<path d="M154.393 82.3213C154.393 76.4582 157.216 75.2617 161.45 75.2617H167.918C172.152 75.2617 174.74 76.8172 174.74 80.4068V81.8427H169.212C169.212 80.2872 168.389 79.6889 165.919 79.6889H163.567C161.214 79.6889 160.038 80.4068 160.038 82.082V84.1161C160.038 86.1502 161.332 86.7485 163.096 86.7485H166.037C167.683 86.7485 169.094 86.3895 169.094 84.9537V84.5947H174.622V85.9109C174.622 90.0988 171.211 91.1757 167.918 91.1757H162.155C158.392 91.1757 154.393 90.4577 154.393 83.8768V82.3213Z" fill="#312783"/>
<path d="M179.208 69.041H184.853V78.015H184.971C186.029 75.8613 187.911 75.263 190.969 75.263C194.497 75.263 199.437 75.3827 199.437 82.0833V90.9376H193.792V82.0833C193.792 80.5278 192.616 79.8098 190.146 79.8098H188.852C186.382 79.8098 184.971 81.0064 184.971 83.1602V90.9376H179.326V69.041H179.208Z" fill="#312783"/>
<path d="M204.025 82.3213C204.025 76.4582 206.848 75.2617 211.082 75.2617H215.08C221.196 75.2617 223.666 76.5779 223.666 81.9623V84.5947H209.788V85.5519C209.788 87.2271 210.964 87.586 213.316 87.586H215.08C218.138 87.586 218.256 86.7485 218.256 85.7912H223.548V86.5092C223.548 90.3381 220.138 91.1757 216.021 91.1757H211.787C208.024 91.1757 204.025 90.4577 204.025 83.8768V82.3213ZM218.021 81.0051C218.021 79.2103 217.197 78.8513 213.904 78.8513C210.258 78.8513 209.788 79.2103 209.788 81.0051H218.021Z" fill="#312783"/>
<path d="M228.134 75.501H233.78V78.0137H233.897C234.956 75.86 236.837 75.2617 239.895 75.2617C243.424 75.2617 248.363 75.3814 248.363 82.082V90.9363H242.718V82.082C242.718 80.5265 241.542 79.8086 239.072 79.8086H237.661C235.191 79.8086 233.78 81.0051 233.78 83.1589V90.9363H228.134V75.501Z" fill="#312783"/>
<path d="M254.832 79.45H252.245V75.5014H254.832V74.3048C254.832 70.117 256.949 68.8008 261.771 68.8008C263.3 68.8008 264.476 68.9204 265.652 68.9204V72.869C264.829 72.869 264.006 72.7494 263.3 72.7494C261.065 72.7494 260.477 73.1083 260.477 74.7835V75.5014H265.887V79.45H260.477V90.8171H254.832V79.45Z" fill="#312783"/>
<path d="M289.998 90.9392H284.353V88.4265H284.235C283.177 90.5803 281.295 91.1785 278.237 91.1785C274.709 91.1785 269.769 91.0589 269.769 84.3583V75.5039H275.414V84.3583C275.414 85.9138 276.59 86.6317 279.06 86.6317H280.354C282.824 86.6317 284.235 85.4352 284.235 83.2814V75.5039H289.88V90.9392H289.998Z" fill="#312783"/>
<path d="M301.289 69.041H295.644V90.9376H301.289V69.041Z" fill="#312783"/>
<path d="M312.932 69.041H307.287V90.9376H312.932V69.041Z" fill="#312783"/>
<path d="M323.869 86.0291C323.869 86.8667 324.222 87.465 327.398 87.465H329.397C332.102 87.465 332.808 87.2256 332.808 86.2684C332.808 85.3112 332.337 84.9522 330.338 84.9522H325.045C319.753 84.9522 318.106 83.7557 318.106 79.5678C318.106 75.7389 321.164 75.1406 325.045 75.1406H329.044C336.454 75.1406 337.747 76.2175 337.865 79.8071H332.22C331.867 78.8499 331.396 78.7302 327.986 78.7302C324.693 78.7302 324.105 78.8499 324.105 79.9268C324.105 80.6447 324.575 80.884 327.515 80.884H331.514C338.335 80.884 338.806 83.1574 338.806 85.9095C338.806 89.9777 337.159 91.0546 330.691 91.0546H325.281C319.988 91.0546 318.106 89.858 318.106 86.0291H323.869Z" fill="#312783"/>
<path d="M342.687 82.3213C342.687 76.4582 345.51 75.2617 349.744 75.2617H353.743C359.858 75.2617 362.328 76.5779 362.328 81.9623V84.5947H348.45V85.5519C348.45 87.2271 349.626 87.586 351.979 87.586H353.743C356.801 87.586 356.918 86.7485 356.918 85.7912H362.211V86.5092C362.211 90.3381 358.8 91.1757 354.684 91.1757H350.45C346.686 91.1757 342.687 90.4577 342.687 83.8768V82.3213ZM356.683 81.0051C356.683 79.2103 355.86 78.8513 352.567 78.8513C348.921 78.8513 348.45 79.2103 348.45 81.0051H356.683Z" fill="#312783"/>
<path d="M366.798 75.501H372.09V78.4924H372.208C372.913 76.0993 375.148 75.2617 377.735 75.2617C381.852 75.2617 383.498 77.0565 383.498 81.3641C383.498 81.723 383.498 82.2016 383.381 82.6802H378.441C378.441 80.7658 377.971 79.8086 375.736 79.8086C373.737 79.8086 372.443 80.5265 372.443 82.4409V90.9363H366.798V75.501Z" fill="#312783"/>
<path d="M386.203 75.5039H392.318L397.023 86.3924L401.61 75.5039H407.843L400.551 90.9392H393.494L386.203 75.5039Z" fill="#312783"/>
<path d="M417.369 73.5879H411.724V69.041H417.369V73.5879ZM417.369 90.9376H411.724V75.5023H417.369V90.9376Z" fill="#312783"/>
<path d="M422.309 82.3213C422.309 76.4582 425.131 75.2617 429.365 75.2617H435.834C440.068 75.2617 442.655 76.8172 442.655 80.4068V81.8427H437.128C437.128 80.2872 436.304 79.6889 433.835 79.6889H431.6C429.248 79.6889 428.072 80.4068 428.072 82.082V84.1161C428.072 86.1502 429.365 86.7485 431.13 86.7485H434.07C435.716 86.7485 437.128 86.3895 437.128 84.9537V84.5947H442.655V85.9109C442.655 90.0988 439.245 91.1757 435.952 91.1757H430.189C426.425 91.1757 422.426 90.4577 422.426 83.8768V82.3213H422.309Z" fill="#312783"/>
<path d="M446.302 82.3213C446.302 76.4582 449.125 75.2617 453.359 75.2617H457.358C463.474 75.2617 465.943 76.5779 465.943 81.9623V84.5947H452.065V85.5519C452.065 87.2271 453.241 87.586 455.594 87.586H457.358C460.416 87.586 460.533 86.7485 460.533 85.7912H465.826V86.5092C465.826 90.3381 462.415 91.1757 458.299 91.1757H454.065C450.301 91.1757 446.302 90.4577 446.302 83.8768V82.3213ZM460.298 81.0051C460.298 79.2103 459.475 78.8513 456.182 78.8513C452.536 78.8513 452.065 79.2103 452.065 81.0051H460.298Z" fill="#312783"/>
<path d="M450.771 35.0586H362.681V51.5708H459.945L450.771 35.0586Z" fill="#312783"/>
<path d="M431.836 0.835938H362.681V10.4082H437.129L431.836 0.835938Z" fill="#312783"/>
<path d="M440.186 15.793H362.681V29.5531H447.713L440.186 15.793Z" fill="#312783"/>
</svg>
