<svg width="607" height="98" viewBox="0 0 607 98" fill="none" xmlns="http://www.w3.org/2000/svg">
<path d="M182.083 56.2448V77.3852H207.429V95.3791H161.399V2.06641H206.167V20.0603H182.083V38.2509H203.253V56.2448H182.083Z" fill="#312783"/>
<path d="M256.47 45.6241C262.976 47.0007 267.929 52.9004 267.929 59.8816V86.3317C267.929 90.9531 268.705 94.5912 269.871 95.4761H249.575C248.506 94.5912 247.632 90.9531 247.632 86.3317V60.7666C247.632 57.1285 244.719 54.1786 241.126 54.1786H233.551V38.3479H241.806C244.039 38.3479 246.079 36.9714 246.953 35.0048C247.73 33.2349 248.118 30.6784 248.118 27.8269C248.118 25.3687 247.827 23.0089 247.244 21.3373C246.467 19.2724 244.331 17.7975 242.097 17.7975H236.076V95.3778H215.586V1.9668H249.963C258.412 1.9668 266.278 8.35809 267.637 16.4209C268.026 18.8791 268.22 21.6323 268.22 24.3855C268.22 27.3353 267.929 30.1868 267.54 32.7433C266.472 38.9379 262.199 43.7559 256.47 45.6241Z" fill="#312783"/>
<path d="M307.259 58.8013C320.563 58.8013 327.652 52.1151 329.206 42.0857C329.885 37.7593 330.08 34.4161 330.08 30.2864C330.08 24.4851 329.885 20.8469 328.914 16.5205C327.069 8.4577 319.592 2.06641 311.24 2.06641H277.057V95.4774H297.547V19.077H302.694C306.676 19.077 308.618 21.4369 309.201 24.5834C309.492 26.3533 309.492 28.4181 309.492 30.3847C309.492 32.5479 309.492 35.0061 309.104 36.776C308.521 39.8241 305.802 42.184 302.597 42.184H294.925V58.8013H307.259Z" fill="#312783"/>
<path d="M356.299 2.06641H335.809V95.4774H356.299V2.06641Z" fill="#312783"/>
<path d="M387.763 77.9752H408.642V95.4774H367.273V2.06641H387.763V77.9752Z" fill="#312783"/>
<path d="M564.893 45.6254C571.4 47.002 576.353 52.9016 576.353 59.8829V86.333C576.353 90.9544 577.129 94.5925 578.295 95.4774H557.999C556.93 94.5925 556.056 90.9544 556.056 86.333V60.7679C556.056 57.1298 553.143 54.1799 549.55 54.1799H541.975V38.4475H550.23C552.463 38.4475 554.503 37.071 555.377 35.1044C556.153 33.3345 556.542 30.778 556.542 27.9265C556.542 25.4683 556.251 23.1085 555.668 21.4369C554.891 19.372 552.755 17.8971 550.521 17.8971H544.597V95.4774H524.107V2.06641H558.484C566.933 2.06641 574.799 8.4577 576.158 16.5205C576.547 18.9787 576.741 21.7319 576.741 24.485C576.741 27.4349 576.45 30.2864 576.061 32.8429C574.993 38.9392 570.623 43.8555 564.893 45.6254Z" fill="#312783"/>
<path d="M497.11 95.4774H518.668L502.062 2.06641H474.871L457.974 95.4774H478.464L488.564 17.8971L493.42 62.931H480.407L477.785 79.6467H495.168L497.11 95.4774Z" fill="#312783"/>
<path d="M434.182 77.9752H454.381V95.4774H413.789V2.06641H434.182V77.9752Z" fill="#312783"/>
<path d="M32.532 95.376L83.3209 55.1602L129.837 95.376H32.532Z" fill="#312783"/>
<path d="M32.532 95.376L83.3209 55.1602L129.837 95.376H32.532Z" fill="#B5B5B5" stroke="white" stroke-width="4.7316" stroke-miterlimit="10"/>
<path d="M23.4037 79.0552C21.5586 78.4652 20.1019 76.597 20.1019 75.0238V20.1571C20.4904 17.9939 21.4615 16.7156 23.4037 16.1257V16.0274C23.7921 15.9291 24.2777 15.929 24.7632 15.929C25.1517 15.929 25.6372 15.9291 26.0257 16.0274C28.1621 16.3224 29.813 17.9939 29.813 20.1571V39.9209H49.3322V19.2722C48.7496 10.1277 43.1172 3.44146 34.3772 1.08161C31.3668 0.294988 28.4534 0 24.8603 0C21.4615 0 18.5481 0.294988 15.1493 1.08161C7.08908 2.8515 0.485554 9.93108 0 19.3705V76.7937C0 86.9214 8.06019 95.3776 18.0626 95.5742H24.8603L45.3507 79.2519C47.2929 77.777 49.3322 74.6305 49.3322 71.189V55.4566H29.813V74.7288C29.813 76.892 28.065 78.8586 25.9286 79.1535C25.5401 79.2519 25.1517 79.2519 24.6661 79.2519C24.2777 79.2519 23.7921 79.1535 23.4037 79.0552Z" fill="#312783"/>
<path d="M81.0876 46.8054L113.717 75.0253L96.8195 2.06641H69.0458L53.2168 72.8621L83.8067 48.6736H90.7986V44.4455H77.8829L83.1269 18.2904L88.9535 46.8054H81.0876Z" fill="#312783"/>
<path d="M155.668 2.06641V20.3553H142.461V95.3791H137.411L121.291 81.5149V20.3553H108.181V2.06641H155.668Z" fill="#312783"/>
<path d="M594.414 25.0723C600.532 25.0723 605.582 20.0576 605.582 13.7647C605.582 7.57006 600.629 2.45703 594.414 2.45703C588.296 2.45703 583.247 7.47173 583.247 13.7647C583.247 19.9593 588.296 25.0723 594.414 25.0723Z" fill="white" stroke="#312783" stroke-width="2.3676"/>
<path d="M592.278 20.7489H589.85V7.17969H594.706C596.648 7.17969 598.687 7.96628 598.687 10.7194C598.687 12.4893 597.716 13.6693 596.259 13.9643C598.105 14.2593 598.104 15.5375 598.396 17.4057C598.493 18.2907 598.59 19.8639 599.076 20.6505H596.357C596.162 19.4706 596.065 18.1924 595.968 17.0124C595.871 16.2258 595.774 15.2425 594.9 15.1442H592.278V20.7489ZM592.278 13.0793H594.317C595.385 13.0793 596.065 12.391 596.065 11.2111C596.065 10.0312 595.385 9.53953 594.317 9.44121H592.278V13.0793Z" fill="#312783"/>
<path d="M256.47 45.6241C262.976 47.0007 267.929 52.9004 267.929 59.8816V86.3317C267.929 90.9531 268.705 94.5912 269.871 95.4761H249.575C248.506 94.5912 247.632 90.9531 247.632 86.3317V60.7666C247.632 57.1285 244.719 54.1786 241.126 54.1786H233.551V38.3479H241.806C244.039 38.3479 246.079 36.9714 246.953 35.0048C247.73 33.2349 248.118 30.6784 248.118 27.8269C248.118 25.3687 247.827 23.0089 247.244 21.3373C246.467 19.2724 244.331 17.7975 242.097 17.7975H236.076V95.3778H215.586V1.9668H249.963C258.412 1.9668 266.278 8.35809 267.637 16.4209C268.026 18.8791 268.22 21.6323 268.22 24.3855C268.22 27.3353 267.929 30.1868 267.54 32.7433C266.472 38.9379 262.199 43.7559 256.47 45.6241Z" fill="#312783"/>
<path d="M307.259 58.8013C320.563 58.8013 327.652 52.1151 329.206 42.0857C329.885 37.7593 330.08 34.4161 330.08 30.2864C330.08 24.4851 329.885 20.8469 328.914 16.5205C327.069 8.4577 319.592 2.06641 311.24 2.06641H277.057V95.4774H297.547V19.077H302.694C306.676 19.077 308.618 21.4369 309.201 24.5834C309.492 26.3533 309.492 28.4181 309.492 30.3847C309.492 32.5479 309.492 35.0061 309.104 36.776C308.521 39.8241 305.802 42.184 302.597 42.184H294.925V58.8013H307.259Z" fill="#312783"/>
<path d="M356.299 2.06641H335.809V95.4774H356.299V2.06641Z" fill="#312783"/>
<path d="M387.763 77.9752H408.642V95.4774H367.273V2.06641H387.763V77.9752Z" fill="#312783"/>
<path d="M564.893 45.6254C571.4 47.002 576.353 52.9016 576.353 59.8829V86.333C576.353 90.9544 577.129 94.5925 578.295 95.4774H557.999C556.93 94.5925 556.056 90.9544 556.056 86.333V60.7679C556.056 57.1298 553.143 54.1799 549.55 54.1799H541.975V38.4475H550.23C552.463 38.4475 554.503 37.071 555.377 35.1044C556.153 33.3345 556.542 30.778 556.542 27.9265C556.542 25.4683 556.251 23.1085 555.668 21.4369C554.891 19.372 552.755 17.8971 550.521 17.8971H544.597V95.4774H524.107V2.06641H558.484C566.933 2.06641 574.799 8.4577 576.158 16.5205C576.547 18.9787 576.741 21.7319 576.741 24.485C576.741 27.4349 576.45 30.2864 576.061 32.8429C574.993 38.9392 570.623 43.8555 564.893 45.6254Z" fill="#312783"/>
<path d="M497.11 95.4774H518.668L502.062 2.06641H474.871L457.974 95.4774H478.464L488.564 17.8971L493.42 62.931H480.407L477.785 79.6467H495.168L497.11 95.4774Z" fill="#312783"/>
<path d="M434.182 77.9752H454.381V95.4774H413.789V2.06641H434.182V77.9752Z" fill="#312783"/>
<path d="M32.532 95.376L83.3209 55.1602L129.837 95.376H32.532Z" fill="#312783"/>
<path d="M32.532 95.376L83.3209 55.1602L129.837 95.376H32.532Z" fill="#B5B5B5" stroke="white" stroke-width="4.7316" stroke-miterlimit="10"/>
<path d="M23.4037 79.0552C21.5586 78.4652 20.1019 76.597 20.1019 75.0238V20.1571C20.4904 17.9939 21.4615 16.7156 23.4037 16.1257V16.0274C23.7921 15.9291 24.2777 15.929 24.7632 15.929C25.1517 15.929 25.6372 15.9291 26.0257 16.0274C28.1621 16.3224 29.813 17.9939 29.813 20.1571V39.9209H49.3322V19.2722C48.7496 10.1277 43.1172 3.44146 34.3772 1.08161C31.3668 0.294988 28.4534 0 24.8603 0C21.4615 0 18.5481 0.294988 15.1493 1.08161C7.08908 2.8515 0.485554 9.93108 0 19.3705V76.7937C0 86.9214 8.06019 95.3776 18.0626 95.5742H24.8603L45.3507 79.2519C47.2929 77.777 49.3322 74.6305 49.3322 71.189V55.4566H29.813V74.7288C29.813 76.892 28.065 78.8586 25.9286 79.1535C25.5401 79.2519 25.1517 79.2519 24.6661 79.2519C24.2777 79.2519 23.7921 79.1535 23.4037 79.0552Z" fill="#312783"/>
<path d="M81.0876 46.8054L113.717 75.0253L96.8195 2.06641H69.0458L53.2168 72.8621L83.8067 48.6736H90.7986V44.4455H77.8829L83.1269 18.2904L88.9535 46.8054H81.0876Z" fill="#312783"/>
<path d="M155.668 2.06641V20.3553H142.461V95.3791H137.411L121.291 81.5149V20.3553H108.181V2.06641H155.668Z" fill="#312783"/>
<path d="M594.414 25.0723C600.532 25.0723 605.582 20.0576 605.582 13.7647C605.582 7.57006 600.629 2.45703 594.414 2.45703C588.296 2.45703 583.247 7.47173 583.247 13.7647C583.247 19.9593 588.296 25.0723 594.414 25.0723Z" fill="white" stroke="#312783" stroke-width="2.3676"/>
<path d="M592.278 20.7489H589.85V7.17969H594.706C596.648 7.17969 598.687 7.96628 598.687 10.7194C598.687 12.4893 597.716 13.6693 596.259 13.9643C598.105 14.2593 598.104 15.5375 598.396 17.4057C598.493 18.2907 598.59 19.8639 599.076 20.6505H596.357C596.162 19.4706 596.065 18.1924 595.968 17.0124C595.871 16.2258 595.774 15.2425 594.9 15.1442H592.278V20.7489ZM592.278 13.0793H594.317C595.385 13.0793 596.065 12.391 596.065 11.2111C596.065 10.0312 595.385 9.53953 594.317 9.44121H592.278V13.0793Z" fill="#312783"/>
</svg>
