<svg viewBox="0 0 40 40" fill="none" xmlns="http://www.w3.org/2000/svg">
<path d="M15.5167 11.183C15.3622 11.3372 15.2396 11.5203 15.156 11.7219C15.0723 11.9235 15.0293 12.1397 15.0293 12.358C15.0293 12.5762 15.0723 12.7924 15.156 12.994C15.2396 13.1956 15.3622 13.3788 15.5167 13.533L21.9834 19.9996L15.5167 26.4663C15.2051 26.7779 15.03 27.2006 15.03 27.6413C15.03 28.082 15.2051 28.5047 15.5167 28.8163C15.8283 29.1279 16.251 29.303 16.6917 29.303C17.1324 29.303 17.5551 29.1279 17.8667 28.8163L25.5167 21.1663C25.6712 21.0121 25.7938 20.829 25.8774 20.6273C25.9611 20.4257 26.0041 20.2096 26.0041 19.9913C26.0041 19.773 25.9611 19.5569 25.8774 19.3553C25.7938 19.1536 25.6712 18.9705 25.5167 18.8163L17.8667 11.1663C17.2334 10.533 16.1667 10.533 15.5167 11.183Z" fill="url(#paint0_linear_210_2335)"/>
<defs>
<linearGradient id="paint0_linear_210_2335" x1="15.0293" y1="19.9982" x2="26.0041" y2="19.9982" gradientUnits="userSpaceOnUse">
<stop/>
<stop offset="1" stop-color="#312783"/>
</linearGradient>
</defs>
</svg>
