<svg viewBox="0 0 40 40" fill="none" xmlns="http://www.w3.org/2000/svg">
<path d="M24.4833 28.817C24.6378 28.6628 24.7604 28.4797 24.844 28.2781C24.9277 28.0765 24.9707 27.8603 24.9707 27.642C24.9707 27.4238 24.9277 27.2076 24.844 27.006C24.7604 26.8044 24.6378 26.6212 24.4833 26.467L18.0167 20.0004L24.4833 13.5337C24.795 13.2221 24.97 12.7994 24.97 12.3587C24.97 11.918 24.795 11.4953 24.4833 11.1837C24.1717 10.8721 23.749 10.697 23.3083 10.697C22.8676 10.697 22.445 10.8721 22.1333 11.1837L14.4833 18.8337C14.3288 18.9879 14.2062 19.171 14.1226 19.3727C14.039 19.5743 13.9959 19.7904 13.9959 20.0087C13.9959 20.227 14.039 20.4431 14.1226 20.6447C14.2062 20.8464 14.3288 21.0295 14.4833 21.1837L22.1333 28.8337C22.7667 29.467 23.8333 29.467 24.4833 28.817Z" fill="url(#paint0_linear_210_2337)"/>
<defs>
<linearGradient id="paint0_linear_210_2337" x1="24.9707" y1="20.0018" x2="13.9959" y2="20.0018" gradientUnits="userSpaceOnUse">
<stop/>
<stop offset="1" stop-color="#312783"/>
</linearGradient>
</defs>
</svg>
