<svg width="1270" height="318" viewBox="0 0 1270 318" fill="none" xmlns="http://www.w3.org/2000/svg">
<g clip-path="url(#clip0_194_388)">
<path fill-rule="evenodd" clip-rule="evenodd" d="M325.916 143.888V144.504C325.827 146.715 325.098 148.655 321.929 148.655H308.348V181.318C308.348 184.925 306.088 185.487 303.649 185.487H303.471C301.033 185.487 298.754 184.997 298.754 181.318V148.655H285.191C282.023 148.655 281.293 146.715 281.204 144.504V143.888C281.293 141.676 282.023 139.719 285.191 139.719H322.018C325.098 139.719 325.827 141.676 325.916 143.888ZM238.557 155.778V181.318C238.557 184.925 236.278 185.487 233.84 185.487H233.68C231.188 185.487 228.963 184.997 228.963 181.318V143.888C228.963 140.281 231.188 139.719 233.68 139.719H233.84C235.815 139.719 237.346 141.586 237.346 141.586L263.351 169.373V143.888C263.351 140.281 265.612 139.719 268.05 139.719H268.228C270.667 139.719 272.945 140.19 272.945 143.888V181.318C272.945 184.925 270.667 185.487 268.228 185.487H268.05C266.092 185.487 264.544 183.62 264.544 183.62L238.557 155.778ZM189.911 176.533H213.37C216.539 176.533 217.268 178.49 217.357 180.701V181.318C217.268 183.529 216.539 185.487 213.37 185.487H185.033C182.595 185.487 180.317 184.997 180.317 181.318V143.888C180.317 140.281 182.595 139.719 185.033 139.719H213.37C216.539 139.719 217.268 141.676 217.357 143.888V144.504C217.268 146.715 216.539 148.655 213.37 148.655H189.911V157.736H207.852C211.021 157.736 211.751 159.657 211.84 161.869V162.521C211.751 164.733 211.021 166.636 207.852 166.636H189.911V176.533ZM166.024 181.318C166.024 184.925 163.745 185.487 161.307 185.487H161.129C158.69 185.487 156.43 184.997 156.43 181.318V143.888C156.43 140.281 158.69 139.719 161.129 139.719H161.307C163.745 139.719 166.024 140.19 166.024 143.888V181.318ZM122.557 139.719H109.581C107.143 139.719 104.9 140.19 104.9 143.888V181.318C104.9 184.925 107.143 185.487 109.581 185.487H122.557C135.141 185.487 144.896 174.974 144.896 162.594C144.896 150.177 135.141 139.719 122.557 139.719ZM122.166 176.678H114.423V148.528H122.166C129.873 148.528 135.48 155.271 135.48 162.594C135.48 169.844 129.873 176.678 122.166 176.678ZM85.2495 139.719H84.0569C81.7786 139.846 80.2478 140.281 77.0795 143.235L41.9611 178.835C40.1634 180.702 40.2524 181.97 40.5906 182.967C40.6796 183.185 41.3203 185.179 44.6667 185.487C46.5 185.577 48.1198 185.088 50.0955 183.094L55.8803 177.185H80.2478V181.408C80.2478 184.997 82.5084 185.577 84.9469 185.577H85.1605C87.6168 185.577 89.8418 185.088 89.8418 181.408V143.978C90.0554 140.281 87.688 139.719 85.2495 139.719ZM63.7655 169.282L80.4614 152.389V169.282H63.7655Z" fill="#312783"/>
<path fill-rule="evenodd" clip-rule="evenodd" d="M7.53717 226.596C5.27664 228.862 3.47889 228.028 1.84134 226.596L1.37855 226.107C-0.0276067 224.457 -0.846383 222.627 1.37855 220.306L31.5487 189.619C33.827 187.317 35.6248 188.151 37.2445 189.619L37.6717 190.054C39.1313 191.722 39.9501 193.553 37.6717 195.855L7.53717 226.596ZM98.0654 134.408C95.8049 136.71 94.0071 135.876 92.3696 134.408L91.9068 133.918C90.4472 132.269 89.6462 130.438 91.9068 128.118L122.041 97.4307C124.302 95.1287 126.1 95.9625 127.773 97.4307L128.2 97.9201C129.66 99.5696 130.478 101.4 128.2 103.72L98.0654 134.408Z" fill="#312783"/>
<path d="M421.844 110.599H430.312L460.067 161.691H452.422L446.189 150.802H405.966L399.733 161.571H392.088L421.844 110.599ZM426.078 116.222L409.259 145.179H442.896L426.078 116.222Z" fill="#312783"/>
<path d="M467.358 110.599H507.464C521.93 110.599 524.282 115.504 524.282 125.077V129.265C524.282 136.444 520.283 138.478 515.108 138.957V139.076C522.047 140.392 523.694 143.982 523.694 148.649V161.571H517.343V150.324C517.343 142.307 513.579 141.35 507.346 141.35H474.18V161.571H467.358V110.599ZM506.64 135.846C514.167 135.846 517.343 133.811 517.343 128.427V123.761C517.343 118.017 514.873 116.222 504.994 116.222H474.18V135.846H506.64Z" fill="#312783"/>
<path d="M536.161 110.599H585.322V116.222H542.865V132.495H583.676V138.119H542.865V155.947H585.675V161.571H536.161V110.599Z" fill="#312783"/>
<path d="M595.554 110.599H605.669L651.655 155.469V110.599H658.358V161.571H648.244L602.376 116.821V161.571H595.554V110.599Z" fill="#312783"/>
<path d="M670.002 145.537H676.353V149.127C676.353 154.152 678.94 156.545 687.408 156.545H708.46C718.339 156.545 721.162 154.392 721.162 147.093C721.162 140.631 718.692 139.076 710.224 139.076H697.287C676.588 139.076 669.766 137.76 669.766 124.239C669.766 112.632 676.588 110 690.583 110H705.167C721.985 110 726.219 114.308 726.219 123.521V125.316H719.868C719.751 117.179 718.928 115.743 701.051 115.743H693.876C680.822 115.743 676.117 116.461 676.117 124.837C676.117 130.939 677.999 132.974 688.584 132.974H708.695C721.985 132.974 727.513 136.802 727.513 145.537V148.887C727.513 161.451 717.399 162.408 707.402 162.408H688.584C678.705 162.408 670.002 160.614 670.002 149.486V145.537Z" fill="#312783"/>
<path d="M392.794 186.698C392.794 180.237 396.322 178.801 402.203 178.801H412.787C418.668 178.801 422.314 180.356 422.314 186.698V193.279C422.314 199.621 418.786 201.176 412.787 201.176H402.203C396.322 201.176 392.794 199.621 392.794 193.279V186.698ZM399.497 191.125C399.497 194.356 400.203 195.552 403.261 195.552H411.729C414.904 195.552 415.493 194.356 415.493 191.125V188.732C415.493 185.98 414.787 184.305 411.376 184.305H403.614C400.203 184.305 399.497 185.98 399.497 188.732V191.125Z" fill="#312783"/>
<path d="M427.371 179.041H433.016V188.374C433.369 185.981 435.839 185.263 438.074 185.263H439.72C446.894 185.263 447.835 187.895 447.835 191.844V194.596C447.835 198.545 446.894 201.177 439.72 201.177H438.074C434.663 201.177 433.252 199.98 432.546 198.066H432.428V200.938H427.371V179.041ZM432.664 193.998C432.664 196.271 433.84 196.869 436.074 196.869H439.485C442.19 196.869 442.543 195.912 442.543 194.237V192.442C442.543 190.767 442.308 189.81 439.485 189.81H436.074C433.84 189.81 432.664 190.288 432.664 192.682V193.998Z" fill="#312783"/>
<path d="M452.187 192.322C452.187 186.459 455.01 185.263 459.244 185.263H463.243C469.358 185.263 471.828 186.579 471.828 191.963V194.596H457.832V195.553C457.832 197.228 459.009 197.587 461.361 197.587H463.125C466.183 197.587 466.3 196.749 466.3 195.792H471.593V196.51C471.593 200.339 468.182 201.177 464.066 201.177H459.832C456.068 201.177 452.07 200.459 452.07 193.878V192.322H452.187ZM466.183 191.006C466.183 189.211 465.36 188.852 462.066 188.852C458.421 188.852 457.95 189.211 457.95 191.006H466.183Z" fill="#312783"/>
<path d="M476.297 185.502H481.589V188.493H481.707C482.412 186.1 484.647 185.263 487.234 185.263C491.351 185.263 492.997 187.057 492.997 191.365C492.997 191.724 492.997 192.203 492.88 192.681H487.94C487.94 190.767 487.47 189.81 485.235 189.81C483.236 189.81 481.942 190.527 481.942 192.442V200.937H476.297V185.502Z" fill="#312783"/>
<path d="M498.643 189.45H496.055V185.501H498.643V184.305C498.643 180.117 500.76 178.801 505.582 178.801C507.111 178.801 508.287 178.92 509.463 178.92V182.869C508.64 182.869 507.816 182.749 507.111 182.749C504.876 182.749 504.288 183.108 504.288 184.783V185.501H509.698V189.45H504.288V200.817H498.643V189.45ZM512.05 179.04H517.696V200.937H512.05V179.04Z" fill="#312783"/>
<path d="M522.047 195.431C522.047 191.243 524.87 191.004 530.398 191.004C533.573 191.004 535.22 191.123 536.278 192.2V190.884C536.278 189.329 535.808 188.85 533.573 188.85H530.162C528.516 188.85 528.045 188.97 527.928 190.047H522.635C522.635 185.859 524.635 185.141 529.457 185.141H536.043C539.924 185.141 542.041 187.055 542.041 190.645V200.815H536.631V199.021C535.102 200.696 534.514 201.055 531.574 201.055H527.693C524.164 201.055 522.047 200.337 522.047 196.628V195.431ZM525.576 179.637H531.221V184.184H525.576V179.637ZM532.279 197.465C536.161 197.465 536.513 196.867 536.513 195.79C536.513 194.593 536.161 194.234 532.985 194.234H530.515C528.163 194.234 527.575 194.833 527.575 196.029C527.575 196.987 528.398 197.465 530.515 197.465H532.279ZM533.573 179.637H539.218V184.184H533.573V179.637Z" fill="#312783"/>
<path d="M546.393 192.322C546.393 186.459 549.216 185.263 553.45 185.263H559.918C564.152 185.263 566.74 186.818 566.74 190.408V191.844H561.212C561.212 190.288 560.389 189.69 557.919 189.69H555.567C553.214 189.69 552.038 190.408 552.038 192.083V194.117C552.038 196.151 553.332 196.749 555.096 196.749H558.037C559.683 196.749 561.094 196.39 561.094 194.955V194.596H566.622V195.912C566.622 200.1 563.211 201.177 559.918 201.177H554.155C550.392 201.177 546.393 200.459 546.393 193.878V192.322Z" fill="#312783"/>
<path d="M571.208 179.041H576.853V188.015H576.971C578.029 185.861 579.911 185.263 582.969 185.263C586.497 185.263 591.437 185.383 591.437 192.083V200.938H585.792V192.083C585.792 190.528 584.616 189.81 582.146 189.81H580.852C578.382 189.81 576.971 191.006 576.971 193.16V200.938H571.326V179.041H571.208Z" fill="#312783"/>
<path d="M596.025 192.322C596.025 186.459 598.848 185.263 603.082 185.263H607.08C613.196 185.263 615.666 186.579 615.666 191.963V194.596H601.788V195.553C601.788 197.228 602.964 197.587 605.316 197.587H607.08C610.138 197.587 610.256 196.749 610.256 195.792H615.548V196.51C615.548 200.339 612.138 201.177 608.021 201.177H603.787C600.024 201.177 596.025 200.459 596.025 193.878V192.322ZM610.021 191.006C610.021 189.211 609.197 188.852 605.904 188.852C602.258 188.852 601.788 189.211 601.788 191.006H610.021Z" fill="#312783"/>
<path d="M620.134 185.502H625.78V188.015H625.897C626.956 185.861 628.837 185.263 631.895 185.263C635.424 185.263 640.363 185.382 640.363 192.083V200.937H634.718V192.083C634.718 190.527 633.542 189.81 631.072 189.81H629.661C627.191 189.81 625.78 191.006 625.78 193.16V200.937H620.134V185.502Z" fill="#312783"/>
<path d="M646.832 189.45H644.245V185.501H646.832V184.305C646.832 180.117 648.949 178.801 653.771 178.801C655.3 178.801 656.476 178.92 657.652 178.92V182.869C656.829 182.869 656.006 182.749 655.3 182.749C653.065 182.749 652.477 183.108 652.477 184.783V185.501H657.887V189.45H652.477V200.817H646.832V189.45Z" fill="#312783"/>
<path d="M681.998 200.938H676.353V198.426H676.235C675.177 200.579 673.295 201.178 670.237 201.178C666.709 201.178 661.769 201.058 661.769 194.357V185.503H667.414V194.357C667.414 195.913 668.59 196.631 671.06 196.631H672.354C674.824 196.631 676.235 195.434 676.235 193.28V185.503H681.88V200.938H681.998Z" fill="#312783"/>
<path d="M693.289 179.041H687.644V200.938H693.289V179.041Z" fill="#312783"/>
<path d="M704.932 179.041H699.287V200.938H704.932V179.041Z" fill="#312783"/>
<path d="M715.869 196.03C715.869 196.868 716.222 197.466 719.398 197.466H721.397C724.102 197.466 724.808 197.227 724.808 196.269C724.808 195.312 724.337 194.953 722.338 194.953H717.045C711.753 194.953 710.106 193.757 710.106 189.569C710.106 185.74 713.164 185.142 717.045 185.142H721.044C728.454 185.142 729.747 186.218 729.865 189.808H724.22C723.867 188.851 723.396 188.731 719.986 188.731C716.693 188.731 716.105 188.851 716.105 189.928C716.105 190.646 716.575 190.885 719.515 190.885H723.514C730.335 190.885 730.806 193.158 730.806 195.91C730.806 199.979 729.159 201.056 722.691 201.056H717.281C711.988 201.056 710.106 199.859 710.106 196.03H715.869Z" fill="#312783"/>
<path d="M734.687 192.322C734.687 186.459 737.51 185.263 741.744 185.263H745.743C751.858 185.263 754.328 186.579 754.328 191.963V194.596H740.45V195.553C740.45 197.228 741.626 197.587 743.979 197.587H745.743C748.801 197.587 748.918 196.749 748.918 195.792H754.211V196.51C754.211 200.339 750.8 201.177 746.684 201.177H742.45C738.686 201.177 734.687 200.459 734.687 193.878V192.322ZM748.683 191.006C748.683 189.211 747.86 188.852 744.567 188.852C740.921 188.852 740.45 189.211 740.45 191.006H748.683Z" fill="#312783"/>
<path d="M758.798 185.502H764.09V188.493H764.208C764.913 186.1 767.148 185.263 769.735 185.263C773.852 185.263 775.498 187.057 775.498 191.365C775.498 191.724 775.498 192.203 775.381 192.681H770.441C770.441 190.767 769.971 189.81 767.736 189.81C765.737 189.81 764.443 190.527 764.443 192.442V200.937H758.798V185.502Z" fill="#312783"/>
<path d="M778.203 185.503H784.318L789.023 196.391L793.61 185.503H799.843L792.551 200.938H785.494L778.203 185.503Z" fill="#312783"/>
<path d="M809.369 183.588H803.724V179.041H809.369V183.588ZM809.369 200.938H803.724V185.502H809.369V200.938Z" fill="#312783"/>
<path d="M814.309 192.322C814.309 186.459 817.131 185.263 821.365 185.263H827.834C832.068 185.263 834.655 186.818 834.655 190.408V191.844H829.128C829.128 190.288 828.304 189.69 825.835 189.69H823.6C821.248 189.69 820.072 190.408 820.072 192.083V194.117C820.072 196.151 821.365 196.749 823.13 196.749H826.07C827.716 196.749 829.128 196.39 829.128 194.955V194.596H834.655V195.912C834.655 200.1 831.245 201.177 827.952 201.177H822.189C818.425 201.177 814.426 200.459 814.426 193.878V192.322H814.309Z" fill="#312783"/>
<path d="M838.302 192.322C838.302 186.459 841.125 185.263 845.359 185.263H849.358C855.474 185.263 857.943 186.579 857.943 191.963V194.596H844.065V195.553C844.065 197.228 845.241 197.587 847.594 197.587H849.358C852.416 197.587 852.533 196.749 852.533 195.792H857.826V196.51C857.826 200.339 854.415 201.177 850.299 201.177H846.065C842.301 201.177 838.302 200.459 838.302 193.878V192.322ZM852.298 191.006C852.298 189.211 851.475 188.852 848.182 188.852C844.536 188.852 844.065 189.211 844.065 191.006H852.298Z" fill="#312783"/>
<path d="M842.771 145.06H754.681V161.572H851.945L842.771 145.06Z" fill="#312783"/>
<path d="M823.836 110.837H754.681V120.409H829.129L823.836 110.837Z" fill="#312783"/>
<path d="M832.186 125.794H754.681V139.554H839.713L832.186 125.794Z" fill="#312783"/>
<path d="M1106.5 161.67V182.81H1131.85V200.804H1085.82V107.491H1130.58V125.485H1106.5V143.676H1127.67V161.67H1106.5Z" fill="#312783"/>
<path d="M1180.89 151.05C1187.39 152.427 1192.35 158.326 1192.35 165.307V191.757C1192.35 196.379 1193.12 200.017 1194.29 200.902H1173.99C1172.92 200.017 1172.05 196.379 1172.05 191.757V166.192C1172.05 162.554 1169.14 159.604 1165.54 159.604H1157.97V143.774H1166.22C1168.46 143.774 1170.5 142.397 1171.37 140.431C1172.15 138.661 1172.54 136.104 1172.54 133.253C1172.54 130.795 1172.24 128.435 1171.66 126.763C1170.89 124.698 1168.75 123.223 1166.52 123.223H1160.49V200.804H1140V107.393H1174.38C1182.83 107.393 1190.7 113.784 1192.06 121.847C1192.44 124.305 1192.64 127.058 1192.64 129.811C1192.64 132.761 1192.35 135.613 1191.96 138.169C1190.89 144.364 1186.62 149.182 1180.89 151.05Z" fill="#312783"/>
<path d="M1231.68 164.226C1244.98 164.226 1252.07 157.54 1253.62 147.51C1254.3 143.184 1254.5 139.841 1254.5 135.711C1254.5 129.91 1254.3 126.272 1253.33 121.945C1251.49 113.883 1244.01 107.491 1235.66 107.491H1201.48V200.902H1221.97V124.502H1227.11C1231.09 124.502 1233.04 126.862 1233.62 130.008C1233.91 131.778 1233.91 133.843 1233.91 135.809C1233.91 137.973 1233.91 140.431 1233.52 142.201C1232.94 145.249 1230.22 147.609 1227.02 147.609H1219.34V164.226H1231.68Z" fill="#312783"/>
<path d="M1280.72 107.491H1260.23V200.902H1280.72V107.491Z" fill="#312783"/>
<path d="M956.95 200.803L1007.74 160.587L1054.25 200.803H956.95Z" fill="#312783"/>
<path d="M956.95 200.803L1007.74 160.587L1054.25 200.803H956.95Z" fill="#B5B5B5" stroke="white" stroke-width="4.7316" stroke-miterlimit="10"/>
<path d="M947.822 184.481C945.977 183.891 944.52 182.023 944.52 180.45V125.583C944.908 123.42 945.879 122.141 947.822 121.551V121.453C948.21 121.355 948.696 121.355 949.181 121.355C949.57 121.355 950.055 121.355 950.444 121.453C952.58 121.748 954.231 123.42 954.231 125.583V145.347H973.75V124.698C973.168 115.554 967.535 108.867 958.795 106.507C955.785 105.721 952.871 105.426 949.278 105.426C945.879 105.426 942.966 105.721 939.567 106.507C931.507 108.277 924.904 115.357 924.418 124.796V182.219C924.418 192.347 932.478 200.803 942.481 201H949.278L969.769 184.678C971.711 183.203 973.75 180.056 973.75 176.615V160.882H954.231V180.155C954.231 182.318 952.483 184.284 950.347 184.579C949.958 184.678 949.57 184.678 949.084 184.678C948.696 184.678 948.21 184.579 947.822 184.481Z" fill="#312783"/>
<path d="M1005.51 152.23L1038.13 180.45L1021.24 107.491H993.464L977.635 178.287L1008.22 154.098H1015.22V149.87H1002.3L1007.54 123.715L1013.37 152.23H1005.51Z" fill="#312783"/>
<path d="M1080.09 107.491V125.78H1066.88V200.804H1061.83L1045.71 186.94V125.78H1032.6V107.491H1080.09Z" fill="#312783"/>
<path d="M1180.89 151.05C1187.39 152.427 1192.35 158.326 1192.35 165.307V191.757C1192.35 196.379 1193.12 200.017 1194.29 200.902H1173.99C1172.92 200.017 1172.05 196.379 1172.05 191.757V166.192C1172.05 162.554 1169.14 159.604 1165.54 159.604H1157.97V143.774H1166.22C1168.46 143.774 1170.5 142.397 1171.37 140.431C1172.15 138.661 1172.54 136.104 1172.54 133.253C1172.54 130.795 1172.24 128.435 1171.66 126.763C1170.89 124.698 1168.75 123.223 1166.52 123.223H1160.49V200.804H1140V107.393H1174.38C1182.83 107.393 1190.7 113.784 1192.06 121.847C1192.44 124.305 1192.64 127.058 1192.64 129.811C1192.64 132.761 1192.35 135.613 1191.96 138.169C1190.89 144.364 1186.62 149.182 1180.89 151.05Z" fill="#312783"/>
<path d="M1231.68 164.226C1244.98 164.226 1252.07 157.54 1253.62 147.51C1254.3 143.184 1254.5 139.841 1254.5 135.711C1254.5 129.91 1254.3 126.272 1253.33 121.945C1251.49 113.883 1244.01 107.491 1235.66 107.491H1201.48V200.902H1221.97V124.502H1227.11C1231.09 124.502 1233.04 126.862 1233.62 130.008C1233.91 131.778 1233.91 133.843 1233.91 135.809C1233.91 137.973 1233.91 140.431 1233.52 142.201C1232.94 145.249 1230.22 147.609 1227.02 147.609H1219.34V164.226H1231.68Z" fill="#312783"/>
<path d="M1280.72 107.491H1260.23V200.902H1280.72V107.491Z" fill="#312783"/>
<path d="M956.95 200.803L1007.74 160.587L1054.25 200.803H956.95Z" fill="#312783"/>
<path d="M956.95 200.803L1007.74 160.587L1054.25 200.803H956.95Z" fill="#B5B5B5" stroke="white" stroke-width="4.7316" stroke-miterlimit="10"/>
<path d="M947.822 184.481C945.977 183.891 944.52 182.023 944.52 180.45V125.583C944.908 123.42 945.879 122.141 947.822 121.551V121.453C948.21 121.355 948.696 121.355 949.181 121.355C949.57 121.355 950.055 121.355 950.444 121.453C952.58 121.748 954.231 123.42 954.231 125.583V145.347H973.75V124.698C973.168 115.554 967.535 108.867 958.795 106.507C955.785 105.721 952.871 105.426 949.278 105.426C945.879 105.426 942.966 105.721 939.567 106.507C931.507 108.277 924.904 115.357 924.418 124.796V182.219C924.418 192.347 932.478 200.803 942.481 201H949.278L969.769 184.678C971.711 183.203 973.75 180.056 973.75 176.615V160.882H954.231V180.155C954.231 182.318 952.483 184.284 950.347 184.579C949.958 184.678 949.57 184.678 949.084 184.678C948.696 184.678 948.21 184.579 947.822 184.481Z" fill="#312783"/>
<path d="M1005.51 152.23L1038.13 180.45L1021.24 107.491H993.464L977.635 178.287L1008.22 154.098H1015.22V149.87H1002.3L1007.54 123.715L1013.37 152.23H1005.51Z" fill="#312783"/>
<path d="M1080.09 107.491V125.78H1066.88V200.804H1061.83L1045.71 186.94V125.78H1032.6V107.491H1080.09Z" fill="#312783"/>
</g>
<defs>
<clipPath id="clip0_194_388">
<rect width="1270" height="318" fill="white"/>
</clipPath>
</defs>
</svg>
