<svg width="18" height="40" viewBox="0 0 18 40" fill="none" xmlns="http://www.w3.org/2000/svg">
<g id="Group 30">
<path id="Vector" d="M16.7282 31.0308C16.5858 30.905 16.4167 30.8051 16.2306 30.737C16.0445 30.6689 15.8449 30.6338 15.6434 30.6338C15.4419 30.6338 15.2424 30.6689 15.0562 30.737C14.8701 30.8051 14.701 30.905 14.5587 31.0308L8.58869 36.2985L2.61871 31.0308C2.33101 30.777 1.94082 30.6344 1.53396 30.6344C1.12709 30.6344 0.736895 30.777 0.4492 31.0308C0.161507 31.2847 -0.000116392 31.629 -0.000116407 31.988C-0.000116423 32.347 0.161507 32.6912 0.4492 32.9451L7.51163 39.1766C7.65398 39.3025 7.82306 39.4024 8.00919 39.4705C8.19533 39.5386 8.39487 39.5737 8.59638 39.5737C8.7979 39.5737 8.99743 39.5386 9.18357 39.4705C9.36971 39.4024 9.53879 39.3025 9.68113 39.1766L16.7436 32.9451C17.3283 32.4292 17.3283 31.5603 16.7282 31.0308Z" fill="url(#paint0_linear_231_10447)"/>
<path id="Vector_2" d="M0.453708 8.5434C0.596055 8.66925 0.765135 8.76911 0.951272 8.83723C1.13741 8.90536 1.33694 8.94043 1.53846 8.94043C1.73997 8.94043 1.93951 8.90536 2.12565 8.83723C2.31178 8.76911 2.48086 8.66925 2.62321 8.5434L8.59319 3.27577L14.5632 8.5434C14.8509 8.79725 15.2411 8.93986 15.6479 8.93986C16.0548 8.93986 16.445 8.79725 16.7327 8.5434C17.0204 8.28955 17.182 7.94526 17.182 7.58626C17.182 7.22727 17.0204 6.88298 16.7327 6.62913L9.67025 0.397574C9.52791 0.271716 9.35883 0.171866 9.17269 0.103737C8.98655 0.0356085 8.78702 0.000541885 8.5855 0.000541859C8.38399 0.000541833 8.18445 0.0356084 7.99831 0.103737C7.81218 0.171866 7.6431 0.271716 7.50075 0.397574L0.438321 6.62913C-0.146368 7.14503 -0.146368 8.01392 0.453708 8.5434Z" fill="url(#paint1_linear_231_10447)"/>
</g>
<defs>
<linearGradient id="paint0_linear_231_10447" x1="8.59003" y1="30.6338" x2="8.59003" y2="39.5737" gradientUnits="userSpaceOnUse">
<stop/>
<stop offset="1" stop-color="#312783"/>
</linearGradient>
<linearGradient id="paint1_linear_231_10447" x1="8.59185" y1="8.94043" x2="8.59185" y2="0.00054186" gradientUnits="userSpaceOnUse">
<stop/>
<stop offset="1" stop-color="#312783"/>
</linearGradient>
</defs>
</svg>
