<svg width="201" height="60" viewBox="0 0 201 60" fill="none" xmlns="http://www.w3.org/2000/svg">
<g id="switch10">
<g id="g8">
<g id="g6">
<path id="path2" fill-rule="evenodd" clip-rule="evenodd" d="M187.307 1.42762H199.91L190.042 47.5689H177.44L187.307 1.42762ZM145.226 29.6402C146.458 24.2282 148.943 19.7528 152.672 16.2472C156.413 12.7303 160.772 10.9718 165.765 10.9718C171.473 10.9718 175.318 13.0382 177.293 17.1608C178.882 20.4831 179.122 24.5824 178.015 29.4468C176.773 34.904 174.298 39.3809 170.598 42.8744C166.901 46.357 162.482 48.1036 157.342 48.1036C152.761 48.1036 149.389 46.6544 147.219 43.7534C144.562 40.168 143.901 35.4635 145.226 29.6402ZM156.183 29.6067C155.46 32.7808 155.44 35.1216 156.133 36.6291C156.813 38.1466 157.931 38.9121 159.489 38.9121C161.065 38.9121 162.528 38.1583 163.876 36.6625C165.233 35.167 166.28 32.7808 167.034 29.4687C167.733 26.3975 167.742 24.103 167.069 22.5956C166.392 21.1002 165.299 20.3465 163.796 20.3465C162.202 20.3465 160.709 21.1107 159.328 22.6295C157.944 24.16 156.892 26.4892 156.183 29.6067ZM104.177 59.4178L114.752 13.1886H125.218L124.086 18.1405C126.017 16.0517 127.662 14.6423 129.039 13.9097C130.898 12.9196 132.812 12.4243 134.791 12.4243C138.692 12.4243 141.318 14.147 142.674 17.5696C144.02 20.9917 144.119 25.233 142.964 30.2816C141.691 35.8461 139.556 40.0975 136.558 43.0367C133.563 45.964 130.283 47.4278 126.738 47.4278C125.012 47.4278 123.513 47.0938 122.249 46.4263C120.988 45.7482 119.941 44.7475 119.128 43.4234L115.47 59.4178H104.177ZM122.118 30.0227C121.512 32.6704 121.54 34.6402 122.223 35.9217C122.896 37.2018 123.977 37.8483 125.458 37.8483C126.762 37.8483 127.99 37.2344 129.155 35.9964C130.317 34.7694 131.236 32.6811 131.908 29.7433C132.528 27.0304 132.525 25.0397 131.896 23.7687C131.279 22.4886 130.299 21.854 128.986 21.854C127.551 21.854 126.212 22.4992 124.972 23.7806C123.722 25.0607 122.775 27.149 122.118 30.0227ZM89.5948 12.8018H100.267L98.9818 18.4905C100.57 16.032 102.015 14.3331 103.315 13.4062C104.614 12.4779 106.069 12.0092 107.675 12.0092C109.358 12.0092 111.056 12.6232 112.779 13.8414L107.104 23.3412C105.915 22.681 104.916 22.3575 104.132 22.3575C102.641 22.3575 101.32 23.0837 100.174 24.5142C98.538 26.548 97.0868 30.3476 95.83 35.9131L93.196 47.5689H81.7404L89.5948 12.8018ZM81.6161 33.3421H59.8395C59.6257 35.4727 59.7993 37.0492 60.3483 38.092C61.1112 39.5912 62.3453 40.3353 64.0311 40.3353C65.0971 40.3353 66.1791 40.0124 67.2602 39.3576C67.9305 38.948 68.6965 38.2254 69.5691 37.1816L80.047 38.3812C77.7462 41.8551 75.3053 44.3419 72.7036 45.8512C70.1044 47.3489 66.6443 48.1036 62.3166 48.1036C58.5625 48.1036 55.7325 47.4604 53.8184 46.1728C51.913 44.8854 50.5176 42.8314 49.639 40.0242C48.7612 37.2157 48.6776 33.9195 49.3995 30.1241C50.4253 24.7295 52.6784 20.3563 56.1453 17.0262C59.6241 13.6857 63.8611 12.0092 68.8631 12.0092C72.9176 12.0092 75.9811 12.7638 78.0381 14.263C80.1056 15.7502 81.4867 17.9247 82.1694 20.7552C82.859 23.5964 82.7669 27.2935 81.9013 31.8435L81.6161 33.3421ZM71.7782 27.0043C72.0472 24.4404 71.8308 22.6096 71.1281 21.5099C70.4192 20.4002 69.3224 19.8454 67.8278 19.8454C66.0965 19.8454 64.5604 20.6893 63.2051 22.3543C62.3503 23.3966 61.638 24.9398 61.072 27.0043H71.7782ZM3.17502 1.30811H14.6843L12.744 27.7956L24.8779 1.30811H36.3601L36.3471 27.7956L46.5815 1.30811H58.0362L38.4968 48.7304H26.6127L26.5956 18.8749L12.8841 48.7304H1L3.17502 1.30811Z" fill="white" stroke="white" stroke-miterlimit="2.4142"/>
<path id="path4" fill-rule="evenodd" clip-rule="evenodd" d="M187.307 1.42762H199.91L190.042 47.5689H177.44L187.307 1.42762ZM145.226 29.6402C146.458 24.2282 148.943 19.7528 152.672 16.2472C156.413 12.7303 160.772 10.9718 165.765 10.9718C171.473 10.9718 175.318 13.0382 177.293 17.1608C178.882 20.4831 179.122 24.5824 178.015 29.4468C176.773 34.904 174.298 39.3809 170.598 42.8744C166.901 46.357 162.482 48.1036 157.342 48.1036C152.761 48.1036 149.389 46.6544 147.219 43.7534C144.562 40.168 143.901 35.4635 145.226 29.6402ZM156.183 29.6067C155.46 32.7808 155.44 35.1216 156.133 36.6291C156.813 38.1466 157.931 38.9121 159.489 38.9121C161.065 38.9121 162.528 38.1583 163.876 36.6625C165.233 35.167 166.28 32.7808 167.034 29.4687C167.733 26.3975 167.742 24.103 167.069 22.5956C166.392 21.1002 165.299 20.3465 163.796 20.3465C162.202 20.3465 160.709 21.1107 159.328 22.6295C157.944 24.16 156.892 26.4892 156.183 29.6067ZM104.177 59.4178L114.752 13.1886H125.218L124.086 18.1405C126.017 16.0517 127.662 14.6423 129.039 13.9097C130.898 12.9196 132.812 12.4243 134.791 12.4243C138.692 12.4243 141.318 14.147 142.674 17.5696C144.02 20.9917 144.119 25.233 142.964 30.2816C141.691 35.8461 139.556 40.0975 136.558 43.0367C133.563 45.964 130.283 47.4278 126.738 47.4278C125.012 47.4278 123.513 47.0938 122.249 46.4263C120.988 45.7482 119.941 44.7475 119.128 43.4234L115.47 59.4178H104.177ZM122.118 30.0227C121.512 32.6704 121.54 34.6402 122.223 35.9217C122.896 37.2018 123.977 37.8483 125.458 37.8483C126.762 37.8483 127.99 37.2344 129.155 35.9964C130.317 34.7694 131.236 32.6811 131.908 29.7433C132.528 27.0304 132.525 25.0397 131.896 23.7687C131.279 22.4886 130.299 21.854 128.986 21.854C127.551 21.854 126.212 22.4992 124.972 23.7806C123.722 25.0607 122.775 27.149 122.118 30.0227ZM89.5948 12.8018H100.267L98.9818 18.4905C100.57 16.032 102.015 14.3331 103.315 13.4062C104.614 12.4779 106.069 12.0092 107.675 12.0092C109.358 12.0092 111.056 12.6232 112.779 13.8414L107.104 23.3412C105.915 22.681 104.916 22.3575 104.132 22.3575C102.641 22.3575 101.32 23.0837 100.174 24.5142C98.538 26.548 97.0868 30.3476 95.83 35.9131L93.196 47.5689H81.7404L89.5948 12.8018ZM81.6161 33.3421H59.8395C59.6257 35.4727 59.7993 37.0492 60.3483 38.092C61.1112 39.5912 62.3453 40.3353 64.0311 40.3353C65.0971 40.3353 66.1791 40.0124 67.2602 39.3576C67.9305 38.948 68.6965 38.2254 69.5691 37.1816L80.047 38.3812C77.7462 41.8551 75.3053 44.3419 72.7036 45.8512C70.1044 47.3489 66.6443 48.1036 62.3166 48.1036C58.5625 48.1036 55.7325 47.4604 53.8184 46.1728C51.913 44.8854 50.5176 42.8314 49.639 40.0242C48.7612 37.2157 48.6776 33.9195 49.3995 30.1241C50.4253 24.7295 52.6784 20.3563 56.1453 17.0262C59.6241 13.6857 63.8611 12.0092 68.8631 12.0092C72.9176 12.0092 75.9811 12.7638 78.0381 14.263C80.1056 15.7502 81.4867 17.9247 82.1694 20.7552C82.859 23.5964 82.7669 27.2935 81.9013 31.8435L81.6161 33.3421ZM71.7782 27.0043C72.0472 24.4404 71.8308 22.6096 71.1281 21.5099C70.4192 20.4002 69.3224 19.8454 67.8278 19.8454C66.0965 19.8454 64.5604 20.6893 63.2051 22.3543C62.3503 23.3966 61.638 24.9398 61.072 27.0043H71.7782ZM3.17502 1.30811H14.6843L12.744 27.7956L24.8779 1.30811H36.3601L36.3471 27.7956L46.5815 1.30811H58.0362L38.4968 48.7304H26.6127L26.5956 18.8749L12.8841 48.7304H1L3.17502 1.30811Z" fill="white"/>
</g>
</g>
</g>
</svg>
